<svg width="56" height="56" viewBox="0 0 56 56" fill="none" xmlns="http://www.w3.org/2000/svg">
<rect width="28" height="28" fill="#373333"/>
<rect x="28" y="28" width="28" height="28" fill="#373333"/>
<path d="M9.115 7.15H10.24V11.545C10.24 14.08 10.03 17.755 8.47 20.2C8.26 20.02 7.765 19.735 7.48 19.615C8.995 17.275 9.115 13.93 9.115 11.545V7.15ZM9.79 7.15H20.23V11.155H9.79V10.12H19.105V8.185H9.79V7.15ZM11.71 15.805H19.885V16.735H11.71V15.805ZM11.71 18.64H19.885V19.66H11.71V18.64ZM15.175 11.29H16.255V19.18H15.175V11.29ZM11.2 13H20.41V20.2H19.3V14.005H12.25V20.2H11.2V13Z" fill="white"/>
<path d="M36.864 36.04C39.088 36.312 41.184 36.344 42.816 36.184C44.128 36.072 45.44 35.8 46.592 35.416L46.768 36.584C45.728 36.888 44.368 37.16 43.088 37.272C41.472 37.432 39.232 37.432 36.944 37.208L36.864 36.04ZM36.544 39.32C39.28 39.608 42 39.56 43.872 39.336C45.392 39.176 46.688 38.856 47.536 38.6L47.744 39.784C46.864 40.024 45.648 40.264 44.304 40.424C42.336 40.68 39.376 40.728 36.624 40.52L36.544 39.32ZM42.016 35.832C41.888 35.368 41.744 34.872 41.568 34.408L42.928 34.232C43.088 35.576 43.584 37.192 43.984 38.328C44.416 39.576 45.12 41.112 45.952 42.344C46.128 42.6 46.32 42.824 46.56 43.032L45.888 44.008C44.992 43.784 43.504 43.624 42.4 43.512L42.496 42.536C43.36 42.616 44.4 42.728 44.896 42.792C44.016 41.416 43.344 39.88 42.88 38.584C42.48 37.48 42.24 36.632 42.016 35.832ZM38.88 42.776C38.496 43.32 38.208 43.864 38.208 44.584C38.208 45.896 39.376 46.568 41.888 46.568C43.376 46.568 44.544 46.456 45.712 46.232L45.648 47.496C44.528 47.688 43.28 47.784 41.904 47.784C38.784 47.784 37.024 46.856 36.992 44.792C36.992 43.88 37.264 43.208 37.632 42.504L38.88 42.776Z" fill="white"/>
</svg>
